<?xml version="1.0" encoding="UTF-8" standalone="no"?>
<!-- Created with Inkscape (http://www.inkscape.org/) -->

<svg
   xmlns:dc="http://purl.org/dc/elements/1.1/"
   xmlns:cc="http://creativecommons.org/ns#"
   xmlns:rdf="http://www.w3.org/1999/02/22-rdf-syntax-ns#"
   xmlns:svg="http://www.w3.org/2000/svg"
   xmlns="http://www.w3.org/2000/svg"
   xmlns:sodipodi="http://sodipodi.sourceforge.net/DTD/sodipodi-0.dtd"
   xmlns:inkscape="http://www.inkscape.org/namespaces/inkscape"
   width="153.29634mm"
   height="153.29634mm"
   viewBox="0 0 153.29634 153.29634"
   version="1.1"
   id="svg8"
   inkscape:version="0.92.4 (5da689c313, 2019-01-14)"
   sodipodi:docname="channel.svg">
  <defs
     id="defs2" />
  <sodipodi:namedview
     id="base"
     pagecolor="#ffffff"
     bordercolor="#666666"
     borderopacity="1.0"
     inkscape:pageopacity="0.0"
     inkscape:pageshadow="2"
     inkscape:zoom="1.4"
     inkscape:cx="192.84059"
     inkscape:cy="253.0524"
     inkscape:document-units="mm"
     inkscape:current-layer="svg8"
     showgrid="false"
     inkscape:window-width="2560"
     inkscape:window-height="1377"
     inkscape:window-x="-8"
     inkscape:window-y="-8"
     inkscape:window-maximized="1" />
  <metadata
     id="metadata5">
    <rdf:RDF>
      <cc:Work
         rdf:about="">
        <dc:format>image/svg+xml</dc:format>
        <dc:type
           rdf:resource="http://purl.org/dc/dcmitype/StillImage" />
        <dc:title></dc:title>
      </cc:Work>
    </rdf:RDF>
  </metadata>
  <path
     style="fill:#ffffff;fill-opacity:1;stroke:none;stroke-width:1.07645249;stroke-linecap:butt;stroke-linejoin:miter;stroke-miterlimit:4;stroke-dasharray:none;stroke-dashoffset:0;stroke-opacity:1;paint-order:normal"
     d="M 297.23242,0.09765625 C 137.3043,-4.0650482 4.2781756,122.19924 0.09960938,282.12695 -4.0797123,442.0545 122.17053,575.09368 282.09766,579.28906 442.02536,583.48388 575.07701,457.24565 579.28711,297.31836 583.49745,137.39199 457.27359,4.3284837 297.34766,0.1015625 Z M 369.63477,42.130859 c 0.72306,-0.02891 1.46192,0.04876 2.19726,0.246094 3.92508,1.051601 6.25478,5.086721 5.20313,9.011719 l -20.47461,76.419918 c -0.88101,3.2874 -3.8534,5.45508 -7.10157,5.45508 -0.63076,0 -1.27052,-0.0811 -1.9082,-0.25195 -3.925,-1.05165 -6.25673,-5.08566 -5.20508,-9.01172 l 20.47461,-76.419922 c 0.85527,-3.189868 3.68134,-5.324797 6.81446,-5.449219 z m 69.20312,35.84375 c 1.64901,0.01349 3.30571,0.577737 4.66797,1.720703 3.11274,2.611389 3.5187,7.252492 0.90625,10.365235 l -55.28125,65.875003 c -1.45485,1.73446 -3.5393,2.6289 -5.63867,2.6289 -1.66866,0 -3.34825,-0.56604 -4.72657,-1.72265 -3.11274,-2.61249 -3.51873,-7.25054 -0.90624,-10.36328 l 55.27929,-65.876958 c 1.46842,-1.750903 3.57906,-2.642071 5.69922,-2.626953 z M 273.08008,120.69727 c 29.91911,-0.0747 69.14355,19.19042 103.50781,53.55468 49.98342,49.98342 68.95557,111.21715 41.06836,137.20703 0,0 -3.63589,3.72746 -7.9043,6.11329 -4.07217,2.2769 -55.58007,22.99804 -55.58007,22.99804 -24.71158,10.11322 -47.76733,23.13273 -68.93555,38.88281 l 21.45117,21.45313 c 1.38028,1.3793 2.1543,3.24995 2.1543,5.20117 0,1.95122 -0.77402,3.82383 -2.1543,5.20313 l -5.1543,5.15429 38.12891,38.12891 c 14.16574,14.16574 14.16574,37.21312 0,51.37891 -7.08291,7.08291 -16.38554,10.62304 -25.68945,10.62304 -9.30384,0 -18.61049,-3.54013 -25.69336,-10.62304 l -38.14453,-38.14649 c -1.38421,1.21157 -3.11032,1.82617 -4.83985,1.82617 -1.88255,0 -3.76501,-0.71709 -5.20117,-2.15429 l -27.0918,-27.0918 c -10.08084,4.71084 -21.15121,7.20313 -32.60547,7.20313 h -0.0625 c -20.66988,0 -40.08716,-8.08095 -54.67578,-22.75391 -29.904106,-30.07775 -29.505924,-79.27533 0.89063,-109.67188 l 14.59375,-14.59179 c 29.86782,-29.86787 53.12279,-64.83453 69.12109,-103.92774 0,0 20.8879,-51.64162 22.13477,-53.99804 1.84725,-3.49047 4.16889,-6.66891 6.98242,-9.48243 8.4235,-8.42385 20.09959,-12.45231 33.69922,-12.48632 z m 0.11133,14.62695 0.004,0.002 c -9.68844,0 -17.79194,2.64741 -23.4082,8.26367 -1.70796,1.70797 -3.17449,3.95695 -4.31836,5.91993 -1.14387,1.96304 -2.09961,5.1289 -2.09961,5.1289 -2.9244,9.50105 -2.1372,22.09736 2.48828,36.37891 3.36287,10.383 8.50901,21.1012 15.13281,31.73437 l 33.97852,-33.97851 0.004,0.002 c 5.9204,-5.92033 15.15784,-7.24437 26.00781,-3.73047 9.17439,2.97147 18.83999,9.22281 27.21875,17.60156 19.12479,19.12483 25.08795,42.00482 13.86914,53.22461 l -0.0273,0.0195 -33.95704,33.95899 c 10.6342,6.62578 21.35324,11.77381 31.73829,15.13672 14.25796,4.61764 26.83492,5.4077 36.33007,2.5 0,0 2.84339,-0.82193 5.72071,-2.41016 2.87728,-1.58831 3.67979,-2.32432 5.37695,-4.02148 20.41674,-20.41675 1.6095,-73.7196 -41.06836,-116.39844 -30.93812,-30.9371 -67.46047,-49.33203 -92.99023,-49.33203 z m 212.56836,4.24023 c 2.86529,-0.10382 5.64913,1.4821 6.9375,4.24414 1.71775,3.68274 0.12414,8.06151 -3.5586,9.7793 l -74.46679,34.72656 c -1.00551,0.46904 -2.06556,0.69141 -3.10743,0.69141 -2.77031,0 -5.42402,-1.57285 -6.67187,-4.25 -1.71678,-3.6827 -0.12312,-8.05959 3.55859,-9.77734 L 482.91992,140.25 c 0.92066,-0.42935 1.8848,-0.65153 2.83985,-0.68555 z m -175.94336,58.27344 c -1.99246,0 -3.54576,0.44806 -4.4375,1.33984 -1.73443,1.73435 -1.78776,5.97492 -0.13868,11.06836 2.23473,6.9004 7.33987,14.68362 14.00586,21.34961 13.89404,13.89494 28.68338,17.54786 32.40039,13.88282 l 0.0117,-0.0156 0.002,0.002 c 3.6915,-3.69256 0.0445,-18.5044 -13.86719,-32.41601 -6.66697,-6.66599 -14.44921,-11.7711 -21.34961,-14.00586 -2.4751,-0.80141 -4.74832,-1.20313 -6.63086,-1.20313 z m 125.72265,17.50586 h 67.29688 c 4.06333,0 7.35742,3.29413 7.35742,7.35742 0,4.06337 -3.29409,7.35742 -7.35742,7.35742 h -67.29688 c -4.06337,0 -7.35742,-3.29405 -7.35742,-7.35742 0,-4.06329 3.29405,-7.35742 7.35742,-7.35742 z M 273.54688,388.57422 c -1.77073,1.45088 -3.52043,2.93167 -5.26172,4.42383 l 17.95117,17.95117 4.84375,-4.8418 z m -16.22071,14.27539 c -2.38776,2.24651 -4.75704,4.51677 -7.08398,6.84375 l -15.32227,15.32422 c -2.78804,2.78797 -5.75344,5.33133 -8.86719,7.6289 l 19.24219,19.24219 30.53711,-30.53515 z m 33.80274,24.01953 -5.67579,5.67383 38.13282,38.13281 c 5.18362,5.1837 8.60513,11.66145 9.96875,18.70313 3.70231,-7.99525 2.28465,-17.79727 -4.29883,-24.38086 z m -16.08008,16.08008 -14.49024,14.49023 38.12696,38.12696 c 4.17713,4.17709 9.64994,6.26871 15.13672,6.30273 3.07056,0.0166 5.67994,-2.38647 5.6875,-5.45703 v -0.0488 c 0,-5.77319 -2.24812,-11.20116 -6.33008,-15.2832 z"
     id="path4639"
     transform="scale(0.26458333)"
     inkscape:connector-curvature="0"
     sodipodi:nodetypes="ccccccccccsccccccccscccccscccccsccscsccsccssccccccccccccccccccccccccsccccccsccsccccccccccccccsssscccccccccccccccccccccccscccc" />
  <g
     inkscape:label="Layer 1"
     inkscape:groupmode="layer"
     id="layer1"
     transform="translate(-25.139325,-79.844382)">
    <g
       id="g4637"
       transform="matrix(0.26458333,0,0,0.26458333,38.825756,93.165339)" />
  </g>
</svg>
