<?xml version="1.0" encoding="UTF-8" standalone="no"?>
<svg
   width="100"
   height="100"
   viewBox="0 0 100 100"
   fill="none"
   version="1.1"
   id="svg11"
   sodipodi:docname="discord.svg"
   inkscape:version="1.1 (c4e8f9ed74, 2021-05-24)"
   xmlns:inkscape="http://www.inkscape.org/namespaces/inkscape"
   xmlns:sodipodi="http://sodipodi.sourceforge.net/DTD/sodipodi-0.dtd"
   xmlns="http://www.w3.org/2000/svg"
   xmlns:svg="http://www.w3.org/2000/svg">
  <sodipodi:namedview
     id="namedview13"
     pagecolor="#ffffff"
     bordercolor="#666666"
     borderopacity="1.0"
     inkscape:pageshadow="2"
     inkscape:pageopacity="0.0"
     inkscape:pagecheckerboard="0"
     showgrid="false"
     inkscape:zoom="4.673333"
     inkscape:cx="142.29673"
     inkscape:cy="68.259634"
     inkscape:window-width="1910"
     inkscape:window-height="1043"
     inkscape:window-x="1924"
     inkscape:window-y="31"
     inkscape:window-maximized="1"
     inkscape:current-layer="svg11" />
  <path
     id="path55"
     style="fill:#ffffff;stroke-width:4.5789;stroke-linejoin:round"
     d="M 50,0 A 50,50 0 0 0 0,50 50,50 0 0 0 50,100 50,50 0 0 0 100,50 50,50 0 0 0 50,0 Z m -9.816406,23.189453 c 0.08918,-0.0136 0.178667,0.02661 0.224609,0.105469 0.605067,1.071352 1.296335,2.44538 1.763672,3.568359 5.159139,-0.788546 10.398874,-0.788546 15.666016,0 0.46724,-1.09856 1.133963,-2.497007 1.736328,-3.568359 0.04594,-0.08158 0.135427,-0.12179 0.224609,-0.105469 4.897094,0.845665 9.581522,2.322087 13.949219,4.326172 0.03784,0.01631 0.06897,0.044 0.08789,0.08203 7.738659,11.38267 11.561654,24.222186 10.132812,39.003906 -0.0054,0.06254 -0.0385,0.120176 -0.08984,0.158203 -5.861398,4.304479 -11.539317,6.918292 -17.138672,8.650391 -0.08918,0.02722 -0.186184,-0.0059 -0.240234,-0.08203 -1.293814,-1.800144 -2.46898,-3.698228 -3.498047,-5.691406 -0.05945,-0.116883 -0.0043,-0.258456 0.117188,-0.304688 1.866451,-0.704287 3.640555,-1.54703 5.347656,-2.544922 0.135028,-0.07885 0.143749,-0.272771 0.01953,-0.365234 -0.36194,-0.269187 -0.721334,-0.551189 -1.064453,-0.833985 -0.06476,-0.05164 -0.151642,-0.06267 -0.224609,-0.02734 -11.082598,5.120338 -23.22453,5.120338 -34.439454,0 -0.07297,-0.03262 -0.158642,-0.02234 -0.220703,0.0293 -0.343022,0.282796 -0.703262,0.562845 -1.0625,0.832032 -0.124217,0.09246 -0.113543,0.286379 0.02148,0.365234 1.707101,0.978879 3.481954,1.839886 5.345703,2.546875 0.121515,0.04623 0.178595,0.185852 0.119141,0.302735 -1.007448,1.995977 -2.181864,3.893311 -3.5,5.693359 -0.05675,0.07345 -0.151053,0.107296 -0.240235,0.08008 -5.572326,-1.732109 -11.249927,-4.345922 -17.111325,-8.650401 -0.04862,-0.03803 -0.08444,-0.09761 -0.08984,-0.160156 -1.193889,-12.785742 1.239065,-25.731427 10.123047,-39.003906 0.02152,-0.03533 0.05396,-0.06377 0.0918,-0.08008 4.370399,-2.006788 9.054827,-3.483209 13.949219,-4.326172 z M 38.636719,45 c -3.430418,0 -6.160157,3.101271 -6.160157,6.908203 10e-7,3.806931 2.783692,6.90625 6.160157,6.90625 3.430321,0 6.158203,-3.099319 6.158203,-6.90625 C 44.848972,48.128489 42.094065,45 38.636719,45 Z m 22.769531,0 c -3.430418,0 -6.158203,3.101271 -6.158203,6.908203 0,3.806931 2.781835,6.90625 6.158203,6.90625 3.457442,0 6.158203,-3.099319 6.158203,-6.90625 C 67.618403,48.128489 64.863692,45 61.40625,45 Z" />
  <g
     clip-path="url(#clip0)"
     id="g4"
     style="fill:#ffffff"
     transform="matrix(0.96517292,0,0,0.96517292,15.736361,22.78875)" />
  <defs
     id="defs9">
    <clipPath
       id="clip0">
      <rect
         width="71"
         height="55"
         fill="#ffffff"
         id="rect6"
         x="0"
         y="0" />
    </clipPath>
  </defs>
</svg>
