<?xml version="1.0" encoding="UTF-8" standalone="no"?>
<!-- Generator: Adobe Illustrator 19.0.0, SVG Export Plug-In . SVG Version: 6.00 Build 0)  -->

<svg
   xmlns:dc="http://purl.org/dc/elements/1.1/"
   xmlns:cc="http://creativecommons.org/ns#"
   xmlns:rdf="http://www.w3.org/1999/02/22-rdf-syntax-ns#"
   xmlns:svg="http://www.w3.org/2000/svg"
   xmlns="http://www.w3.org/2000/svg"
   xmlns:sodipodi="http://sodipodi.sourceforge.net/DTD/sodipodi-0.dtd"
   xmlns:inkscape="http://www.inkscape.org/namespaces/inkscape"
   version="1.1"
   id="Layer_1"
   x="0px"
   y="0px"
   viewBox="0 0 595 595"
   xml:space="preserve"
   sodipodi:docname="instagram.svg"
   inkscape:version="0.92.4 (5da689c313, 2019-01-14)"
   width="595"
   height="595"><metadata
   id="metadata4565"><rdf:RDF><cc:Work
       rdf:about=""><dc:format>image/svg+xml</dc:format><dc:type
         rdf:resource="http://purl.org/dc/dcmitype/StillImage" /></cc:Work></rdf:RDF></metadata><defs
   id="defs4563" /><sodipodi:namedview
   pagecolor="#ffffff"
   bordercolor="#666666"
   borderopacity="1"
   objecttolerance="10"
   gridtolerance="10"
   guidetolerance="10"
   inkscape:pageopacity="0"
   inkscape:pageshadow="2"
   inkscape:window-width="2560"
   inkscape:window-height="1377"
   id="namedview4561"
   showgrid="false"
   inkscape:zoom="2.2250293"
   inkscape:cx="109.34304"
   inkscape:cy="293.15176"
   inkscape:window-x="-8"
   inkscape:window-y="-8"
   inkscape:window-maximized="1"
   inkscape:current-layer="g4558" />
<style
   type="text/css"
   id="style4552">
	.st0{fill:#FFFFFF;}
</style>
<g
   id="g4558"
   transform="translate(-2.5,-2.5)">
	<path
   d="M 300,2.5 A 297.5,297.5 0 0 0 2.5,300 297.5,297.5 0 0 0 300,597.5 297.5,297.5 0 0 0 597.5,300 297.5,297.5 0 0 0 300,2.5 Z m 0,121 c 47.9,0 53.89922,0.19961 72.69922,1.09961 18.8,0.9 31.60039,3.80117 42.90039,8.20117 11.7,4.6 21.50078,10.59844 31.30078,20.39844 9.8,9.8 15.90039,19.70078 20.40039,31.30078 4.3,11.2 7.29922,24.00078 8.19922,42.80078 0.9,18.9 1.09961,24.89883 1.09961,72.79883 0,48 -0.29961,54.00078 -1.09961,72.80078 -0.9,18.8 -3.89922,31.59883 -8.19922,42.79883 -4.6,11.6 -10.60039,21.50078 -20.40039,31.30078 -9.8,9.8 -19.60117,15.90039 -31.20117,20.40039 -11.3,4.4 -24.09844,7.29922 -42.89844,8.19922 -18.9,0.9 -24.90078,1.09961 -72.80078,1.09961 -48,0 -54.00078,-0.19961 -72.80078,-1.09961 -18.7,-0.9 -31.59883,-3.79922 -42.79883,-8.19922 -11.6,-4.5 -21.50078,-10.60039 -31.30078,-20.40039 -9.9,-9.8 -15.90039,-19.70078 -20.40039,-31.30078 -4.4,-11.2 -7.29922,-23.99883 -8.19922,-42.79883 -0.9,-18.9 -1.09961,-24.90078 -1.09961,-72.80078 0,-48 0.29961,-53.99883 1.09961,-72.79883 0.8,-18.7 3.79922,-31.60078 8.19922,-42.80078 4.6,-11.6 10.60039,-21.50078 20.40039,-31.30078 9.8,-9.9 19.70078,-15.89844 31.30078,-20.39844 11.2,-4.4 23.99883,-7.30117 42.79883,-8.20117 C 245.99922,123.69961 252.1,123.5 300,123.5 Z m -15.80078,31.80078 c -32.9,0 -39.2,0.2 -55.5,1 -17.2,0.8 -26.59883,3.69961 -32.79883,6.09961 -8.2,3.2 -14.10078,6.99922 -20.30078,13.19922 -6.2,6.2 -9.99922,12.10078 -13.19922,20.30078 -2.4,6.3 -5.29961,15.59883 -6.09961,32.79883 -0.8,18.6 -1,24.20078 -1,71.30078 0,47.1 0.2,52.70078 1,71.30078 0.8,17.2 3.69961,26.59883 6.09961,32.79883 3.2,8.2 6.99922,14.10078 13.19922,20.30078 6.2,6.2 12.10078,9.99922 20.30078,13.19922 6.3,2.4 15.59883,5.29961 32.79883,6.09961 18.6,0.8 24.20078,1 71.30078,1 47.1,0 52.70078,-0.2 71.30078,-1 17.2,-0.8 26.59883,-3.69961 32.79883,-6.09961 8.3,-3.2 14.10078,-6.99922 20.30078,-13.19922 6.2,-6.2 9.99922,-12.10078 13.19922,-20.30078 2.4,-6.3 5.29961,-15.59883 6.09961,-32.79883 0.8,-18.6 1,-24.20078 1,-71.30078 0,-47.1 -0.2,-52.70078 -1,-71.30078 -0.8,-17.2 -3.69961,-26.59883 -6.09961,-32.79883 -3.2,-8.2 -6.99922,-14.10078 -13.19922,-20.30078 -6.2,-6.2 -12.10078,-9.99922 -20.30078,-13.19922 -6.3,-2.4 -15.59883,-5.29961 -32.79883,-6.09961 -18.6,-0.8 -24.20078,-1 -71.30078,-1 z m 110,29.29883 c 11.7,0 21.20117,9.50117 21.20117,21.20117 0,11.7 -9.50117,21.19922 -21.20117,21.19922 C 382.49922,227 373,217.50078 373,205.80078 c 0,-11.7 9.49922,-21.20117 21.19922,-21.20117 z M 300,209.40039 c 50.1,0 90.59961,40.49961 90.59961,90.59961 0,50 -40.49961,90.59961 -90.59961,90.59961 -50,0 -90.59961,-40.49961 -90.59961,-90.59961 0,-50 40.49961,-90.59961 90.59961,-90.59961 z m 0,31.79883 c -32.5,0 -58.80078,26.30078 -58.80078,58.80078 0,32.5 26.30078,58.80078 58.80078,58.80078 32.5,0 58.80078,-26.30078 58.80078,-58.80078 0,-32.5 -26.30078,-58.80078 -58.80078,-58.80078 z"
   id="circle4554"
   inkscape:connector-curvature="0"
   style="fill:#ffffff" />
	
</g>
</svg>