<?xml version="1.0" encoding="UTF-8" standalone="no"?>
<svg
   height="60"
   id="Layer_1"
   version="1.1"
   viewBox="0 0 60 60"
   width="60"
   xml:space="preserve"
   sodipodi:docname="linkedin.svg"
   inkscape:version="1.1.1 (3bf5ae0d25, 2021-09-20, custom)"
   xmlns:inkscape="http://www.inkscape.org/namespaces/inkscape"
   xmlns:sodipodi="http://sodipodi.sourceforge.net/DTD/sodipodi-0.dtd"
   xmlns="http://www.w3.org/2000/svg"
   xmlns:svg="http://www.w3.org/2000/svg"><defs
     id="defs7" /><sodipodi:namedview
     id="namedview5"
     pagecolor="#ffffff"
     bordercolor="#666666"
     borderopacity="1.0"
     inkscape:pageshadow="2"
     inkscape:pageopacity="0.0"
     inkscape:pagecheckerboard="0"
     showgrid="false"
     inkscape:zoom="10.850746"
     inkscape:cx="29.491059"
     inkscape:cy="29.491059"
     inkscape:window-width="948"
     inkscape:window-height="1037"
     inkscape:window-x="2884"
     inkscape:window-y="35"
     inkscape:window-maximized="1"
     inkscape:current-layer="Layer_1" /><path
     d="M 46.837,44.137 V 32.425 c 0,-6.275 -3.35,-9.195 -7.816,-9.195 -3.604,0 -5.219,1.983 -6.119,3.374 V 23.71 h -6.79 c 0.09,1.917 0,20.427 0,20.427 h 6.79 V 32.729 c 0,-0.609 0.044,-1.219 0.224,-1.655 0.49,-1.22 1.607,-2.483 3.482,-2.483 2.458,0 3.44,1.873 3.44,4.618 v 10.929 h 6.789 z M 18.959,20.922 c 2.367,0 3.842,-1.57 3.842,-3.531 -0.044,-2.003 -1.475,-3.528 -3.797,-3.528 -2.322,0 -3.841,1.524 -3.841,3.528 0,1.961 1.474,3.531 3.753,3.531 z M 30,60 C 13.432,60 0,46.568 0,30 0,13.431 13.432,0 30,0 46.568,0 60,13.431 60,30 60,46.568 46.568,60 30,60 Z M 22.354,44.137 V 23.71 h -6.789 v 20.427 z"
     style="clip-rule:evenodd;fill:#ffffff;fill-rule:evenodd"
     id="path2" /></svg>
