<?xml version="1.0" encoding="UTF-8" standalone="no"?>
<svg
   viewBox="0 0 240 240"
   version="1.1"
   id="svg15"
   sodipodi:docname="telegram.svg"
   inkscape:version="1.1 (c4e8f9ed74, 2021-05-24)"
   xmlns:inkscape="http://www.inkscape.org/namespaces/inkscape"
   xmlns:sodipodi="http://sodipodi.sourceforge.net/DTD/sodipodi-0.dtd"
   xmlns="http://www.w3.org/2000/svg"
   xmlns:svg="http://www.w3.org/2000/svg">
  <sodipodi:namedview
     id="namedview17"
     pagecolor="#ffffff"
     bordercolor="#666666"
     borderopacity="1.0"
     inkscape:pageshadow="2"
     inkscape:pageopacity="0.0"
     inkscape:pagecheckerboard="0"
     showgrid="false"
     inkscape:zoom="3.0291667"
     inkscape:cx="119.83494"
     inkscape:cy="119.83494"
     inkscape:window-width="1910"
     inkscape:window-height="1043"
     inkscape:window-x="1924"
     inkscape:window-y="31"
     inkscape:window-maximized="1"
     inkscape:current-layer="svg15" />
  <defs
     id="defs7">
    <linearGradient
       id="a"
       x1="46"
       x2="29"
       y1="11"
       y2="52"
       gradientUnits="userSpaceOnUse">
      <stop
         stop-color="#2aabee"
         offset="0"
         id="stop2" />
      <stop
         stop-color="#229ed9"
         offset="1"
         id="stop4" />
    </linearGradient>
  </defs>
  <g
     transform="scale(3.47)"
     id="g13">
    <path
       id="circle9"
       style="fill:#ffffff;stroke-width:3.47"
       d="M 120.0625 0 A 120.06199 120.06199 0 0 0 0 120.0625 A 120.06199 120.06199 0 0 0 120.0625 240.12305 A 120.06199 120.06199 0 0 0 240.12305 120.0625 A 120.06199 120.06199 0 0 0 120.0625 0 z M 170.85938 70.146484 C 174.20577 70.071764 177.90197 71.437844 177.31641 78.074219 C 176.96941 82.932219 173.84697 99.935172 171.41797 118.32617 L 163.08984 172.80664 C 163.08984 172.80664 162.39639 180.78778 156.15039 182.17578 C 149.90439 183.56378 140.53578 177.31769 138.80078 175.92969 C 137.41278 174.88869 112.77461 159.27267 104.09961 151.63867 C 101.67061 149.55667 98.895266 145.39316 104.44727 140.53516 L 140.88281 105.83594 C 145.04681 101.67194 149.20937 91.955906 131.85938 103.75391 L 83.279297 136.71875 C 83.279297 136.71875 77.728359 140.18745 67.318359 137.06445 L 44.763672 130.125 C 44.763672 130.125 36.435109 124.91984 50.662109 119.71484 C 85.362109 103.40584 128.04223 86.749766 165.86523 71.134766 C 165.86523 71.134766 168.25662 70.2046 170.85938 70.146484 z "
       transform="scale(0.28818444)" />
  </g>
</svg>
